<svg width="113" height="113" viewBox="0 0 113 113" fill="none" xmlns="http://www.w3.org/2000/svg">
<path d="M56.682 0.304688C67.0704 0.304688 77.2534 3.19843 86.0894 8.66147C94.9253 14.1245 102.065 21.9409 106.707 31.2341C111.35 40.5274 113.312 50.9302 112.374 61.2761C111.435 71.622 107.634 81.502 101.395 89.8084C95.156 98.1147 86.7267 104.519 77.0521 108.303C67.3775 112.087 56.84 113.102 46.6211 111.233C36.4022 109.364 26.906 104.685 19.1971 97.7215C11.4883 90.7579 5.87155 81.7846 2.97673 71.8077L11.3535 69.3772C13.7968 77.7979 18.5374 85.3716 25.0439 91.2491C31.5503 97.1265 39.5654 101.075 48.1904 102.653C56.8153 104.23 65.7092 103.374 73.8748 100.18C82.0405 96.9863 89.155 91.581 94.4207 84.5702C99.6864 77.5594 102.895 69.2205 103.687 60.4883C104.479 51.756 102.823 42.9758 98.9046 35.1321C94.9862 27.2884 88.9603 20.6912 81.5025 16.0802C74.0448 11.4693 65.4501 9.02691 56.682 9.02691V0.304688Z" fill="#3ED299"/>
<path d="M2.94008 71.6808C-0.91845 58.2643 0.380936 43.8896 6.58282 31.3825L14.3971 35.2573C9.16255 45.8137 8.06583 57.9462 11.3225 69.2701L2.94008 71.6808Z" fill="#FFCB60"/>
<path d="M6.61955 31.3086C12.8399 18.8106 23.51 9.09122 36.5327 4.06098L39.6755 12.1973C28.6841 16.443 19.6782 24.6463 14.4281 35.1949L6.61955 31.3086Z" fill="#FF5374"/>
<path d="M36.4726 4.08422C42.8703 1.6045 49.6698 0.323389 56.5313 0.304891L56.5548 9.02708C50.7635 9.04269 45.0246 10.124 39.6248 12.2169L36.4726 4.08422Z" fill="#EAE8F3"/>
<path d="M37.844 59L43.8467 45.5408L44.5529 46.7455H36.307L37.5948 45.4369V49.2171H35.0816V44.4607H46.3807V46.2677L40.7311 59H37.844ZM54.1253 59.2077C52.976 59.2077 51.9375 58.9169 51.0097 58.3353C50.0958 57.7538 49.3758 56.9091 48.8496 55.8014C48.3234 54.6798 48.0603 53.3228 48.0603 51.7304C48.0603 50.138 48.3234 48.7879 48.8496 47.6801C49.3758 46.5585 50.0958 45.7069 51.0097 45.1254C51.9375 44.5438 52.976 44.253 54.1253 44.253C55.2884 44.253 56.3269 44.5438 57.2408 45.1254C58.1547 45.7069 58.8748 46.5585 59.401 47.6801C59.941 48.7879 60.211 50.138 60.211 51.7304C60.211 53.3228 59.941 54.6798 59.401 55.8014C58.8748 56.9091 58.1547 57.7538 57.2408 58.3353C56.3269 58.9169 55.2884 59.2077 54.1253 59.2077ZM54.1253 56.8606C54.8038 56.8606 55.3923 56.6806 55.8908 56.3206C56.3892 55.9468 56.777 55.379 57.0539 54.6174C57.3447 53.8559 57.4901 52.8935 57.4901 51.7304C57.4901 50.5534 57.3447 49.591 57.0539 48.8433C56.777 48.0817 56.3892 47.5209 55.8908 47.1609C55.3923 46.787 54.8038 46.6001 54.1253 46.6001C53.4745 46.6001 52.8929 46.787 52.3806 47.1609C51.8821 47.5209 51.4874 48.0817 51.1966 48.8433C50.9197 49.591 50.7812 50.5534 50.7812 51.7304C50.7812 52.8935 50.9197 53.8559 51.1966 54.6174C51.4874 55.379 51.8821 55.9468 52.3806 56.3206C52.8929 56.6806 53.4745 56.8606 54.1253 56.8606ZM64.4866 59L74.4149 44.4607H76.4504L66.5221 59H64.4866ZM65.6913 52.2912C65.0128 52.2912 64.4105 52.125 63.8843 51.7927C63.3581 51.4603 62.9496 50.9965 62.6588 50.4011C62.368 49.8056 62.2226 49.1064 62.2226 48.3032C62.2226 47.5001 62.368 46.8009 62.6588 46.2054C62.9496 45.61 63.3581 45.1461 63.8843 44.8138C64.4105 44.4815 65.0128 44.3153 65.6913 44.3153C66.3975 44.3153 67.0068 44.4815 67.5191 44.8138C68.0453 45.1461 68.4538 45.61 68.7445 46.2054C69.0353 46.8009 69.1807 47.5001 69.1807 48.3032C69.1807 49.1064 69.0353 49.8056 68.7445 50.4011C68.4538 50.9965 68.0453 51.4603 67.5191 51.7927C67.0068 52.125 66.3975 52.2912 65.6913 52.2912ZM65.7121 50.8372C66.2659 50.8372 66.6952 50.6226 66.9998 50.1934C67.3183 49.7502 67.4776 49.1202 67.4776 48.3032C67.4776 47.4863 67.3183 46.8632 66.9998 46.4339C66.6952 45.9908 66.2659 45.7693 65.7121 45.7693C65.1582 45.7693 64.7151 45.9908 64.3828 46.4339C64.0643 46.877 63.905 47.5001 63.905 48.3032C63.905 49.1064 64.0643 49.7295 64.3828 50.1726C64.7151 50.6157 65.1582 50.8372 65.7121 50.8372ZM75.2249 59.1454C74.5464 59.1454 73.9441 58.9792 73.4179 58.6469C72.8917 58.3146 72.4832 57.8507 72.1924 57.2553C71.9016 56.6599 71.7563 55.9606 71.7563 55.1575C71.7563 54.3544 71.9016 53.6551 72.1924 53.0597C72.4832 52.4642 72.8917 52.0004 73.4179 51.668C73.9441 51.3357 74.5464 51.1696 75.2249 51.1696C75.9311 51.1696 76.5404 51.3357 77.0527 51.668C77.5789 52.0004 77.9874 52.4642 78.2782 53.0597C78.5689 53.6551 78.7143 54.3544 78.7143 55.1575C78.7143 55.9606 78.5689 56.6599 78.2782 57.2553C77.9874 57.8507 77.5789 58.3146 77.0527 58.6469C76.5404 58.9792 75.9311 59.1454 75.2249 59.1454ZM75.2249 57.6915C75.7788 57.6915 76.215 57.4699 76.5334 57.0268C76.8519 56.5837 77.0112 55.9606 77.0112 55.1575C77.0112 54.3544 76.8519 53.7312 76.5334 53.2881C76.215 52.845 75.7788 52.6235 75.2249 52.6235C74.6849 52.6235 74.2487 52.845 73.9164 53.2881C73.5979 53.7174 73.4387 54.3405 73.4387 55.1575C73.4387 55.9744 73.5979 56.6045 73.9164 57.0476C74.2487 57.4768 74.6849 57.6915 75.2249 57.6915Z" fill="#DFD7F2"/>
<path d="M51.3288 66.5233L48.0631 74.6094H46.7042L43.4385 66.5233H44.6464C44.7768 66.5233 44.8831 66.555 44.9651 66.6184C45.0471 66.6817 45.1086 66.7638 45.1496 66.8644L47.0565 71.7966C47.1199 71.9569 47.1796 72.134 47.2355 72.3278C47.2951 72.518 47.351 72.7174 47.4032 72.9262C47.448 72.7174 47.4964 72.518 47.5486 72.3278C47.6008 72.134 47.6586 71.9569 47.722 71.7966L49.6177 66.8644C49.6475 66.7787 49.7053 66.7004 49.791 66.6295C49.8805 66.5587 49.9886 66.5233 50.1154 66.5233H51.3288ZM54.1267 72.1601C53.7278 72.1787 53.3923 72.2141 53.1201 72.2663C52.848 72.3148 52.6299 72.3782 52.4659 72.4564C52.3018 72.5347 52.1844 72.6261 52.1136 72.7305C52.0427 72.8348 52.0073 72.9485 52.0073 73.0716C52.0073 73.3139 52.0781 73.4872 52.2198 73.5916C52.3652 73.696 52.5535 73.7482 52.7846 73.7482C53.0679 73.7482 53.3121 73.6979 53.5172 73.5972C53.7259 73.4928 53.9291 73.3363 54.1267 73.1275V72.1601ZM50.9616 69.6716C51.6215 69.0677 52.4155 68.7657 53.3438 68.7657C53.6793 68.7657 53.9794 68.8216 54.2441 68.9335C54.5088 69.0416 54.7325 69.1944 54.9152 69.392C55.0978 69.5859 55.2358 69.8189 55.329 70.091C55.4259 70.3632 55.4744 70.6614 55.4744 70.9857V74.6094H54.8481C54.7176 74.6094 54.6169 74.5907 54.5461 74.5535C54.4753 74.5124 54.4193 74.4323 54.3783 74.313L54.2553 73.8992C54.1099 74.0297 53.9683 74.1452 53.8303 74.2459C53.6924 74.3428 53.5488 74.4248 53.3997 74.4919C53.2506 74.559 53.0903 74.6094 52.9188 74.6429C52.7511 74.6802 52.5647 74.6988 52.3596 74.6988C52.1173 74.6988 51.8936 74.6672 51.6886 74.6038C51.4835 74.5367 51.3064 74.4379 51.1573 74.3074C51.0082 74.1769 50.8926 74.0148 50.8106 73.8209C50.7286 73.627 50.6876 73.4015 50.6876 73.1443C50.6876 72.9989 50.7118 72.8553 50.7603 72.7137C50.8088 72.5683 50.887 72.4303 50.9952 72.2999C51.107 72.1694 51.2505 72.0464 51.4257 71.9308C51.601 71.8152 51.8153 71.7146 52.0688 71.6288C52.3261 71.5431 52.6243 71.4741 52.9636 71.4219C53.3028 71.366 53.6905 71.3324 54.1267 71.3213V70.9857C54.1267 70.6018 54.0447 70.3184 53.8806 70.1358C53.7166 69.9493 53.4799 69.8561 53.1705 69.8561C52.9468 69.8561 52.7604 69.8822 52.6113 69.9344C52.4659 69.9866 52.3372 70.0463 52.2254 70.1134C52.1136 70.1768 52.011 70.2345 51.9178 70.2867C51.8284 70.3389 51.7277 70.365 51.6159 70.365C51.5189 70.365 51.4369 70.3408 51.3698 70.2923C51.3027 70.2401 51.2487 70.1805 51.2077 70.1134L50.9616 69.6716ZM58.1732 66.2996V74.6094H56.792V66.2996H58.1732ZM60.9809 68.872V74.6094H59.5941V68.872H60.9809ZM61.1711 67.1999C61.1711 67.3192 61.1468 67.4311 61.0984 67.5355C61.0499 67.6398 60.9847 67.7312 60.9027 67.8095C60.8244 67.8878 60.7312 67.9511 60.6231 67.9996C60.5149 68.0443 60.3994 68.0667 60.2764 68.0667C60.1571 68.0667 60.0434 68.0443 59.9352 67.9996C59.8309 67.9511 59.7395 67.8878 59.6612 67.8095C59.5829 67.7312 59.5196 67.6398 59.4711 67.5355C59.4264 67.4311 59.404 67.3192 59.404 67.1999C59.404 67.0769 59.4264 66.9613 59.4711 66.8532C59.5196 66.7451 59.5829 66.6519 59.6612 66.5736C59.7395 66.4953 59.8309 66.4338 59.9352 66.3891C60.0434 66.3406 60.1571 66.3164 60.2764 66.3164C60.3994 66.3164 60.5149 66.3406 60.6231 66.3891C60.7312 66.4338 60.8244 66.4953 60.9027 66.5736C60.9847 66.6519 61.0499 66.7451 61.0984 66.8532C61.1468 66.9613 61.1711 67.0769 61.1711 67.1999ZM65.9904 70.3371C65.8338 70.1469 65.6623 70.0127 65.4759 69.9344C65.2932 69.8561 65.0956 69.817 64.8831 69.817C64.6744 69.817 64.4861 69.8561 64.3183 69.9344C64.1506 70.0127 64.0071 70.132 63.8878 70.2923C63.7685 70.4489 63.6771 70.6502 63.6137 70.8963C63.5504 71.1386 63.5187 71.4256 63.5187 71.7574C63.5187 72.093 63.5448 72.3782 63.597 72.613C63.6529 72.8442 63.7312 73.0343 63.8318 73.1834C63.9325 73.3288 64.0555 73.435 64.2009 73.5022C64.3463 73.5655 64.5085 73.5972 64.6874 73.5972C64.9745 73.5972 65.2187 73.5376 65.42 73.4183C65.6213 73.299 65.8114 73.1294 65.9904 72.9094V70.3371ZM67.3716 66.2996V74.6094H66.5272C66.3445 74.6094 66.229 74.5255 66.1805 74.3577L66.0631 73.8041C65.8319 74.0688 65.5654 74.2832 65.2634 74.4472C64.9652 74.6112 64.6166 74.6933 64.2177 74.6933C63.9045 74.6933 63.6175 74.628 63.3565 74.4975C63.0956 74.3671 62.87 74.1788 62.6799 73.9327C62.4935 73.683 62.3481 73.3754 62.2437 73.0101C62.143 72.6447 62.0927 72.2272 62.0927 71.7574C62.0927 71.3324 62.1505 70.9373 62.2661 70.5719C62.3816 70.2066 62.5475 69.8897 62.7638 69.6213C62.98 69.3529 63.2391 69.1441 63.541 68.995C63.843 68.8421 64.1823 68.7657 64.5588 68.7657C64.8794 68.7657 65.1534 68.816 65.3808 68.9167C65.6082 69.0173 65.8114 69.1534 65.9904 69.3249V66.2996H67.3716Z" fill="#EAE8F3"/>
</svg>
