<svg width="25" height="24" viewBox="0 0 25 24" fill="none" xmlns="http://www.w3.org/2000/svg">
<circle cx="12.5" cy="12" r="12" fill="#FFF067"/>
<path d="M4.788 10.7391V9.70706H6.716V15.5391H5.564V10.7391H4.788ZM7.66244 12.5471C7.66244 11.6244 7.82777 10.9017 8.15844 10.3791C8.49444 9.8564 9.0491 9.59506 9.82244 9.59506C10.5958 9.59506 11.1478 9.8564 11.4784 10.3791C11.8144 10.9017 11.9824 11.6244 11.9824 12.5471C11.9824 13.4751 11.8144 14.2031 11.4784 14.7311C11.1478 15.2591 10.5958 15.5231 9.82244 15.5231C9.0491 15.5231 8.49444 15.2591 8.15844 14.7311C7.82777 14.2031 7.66244 13.4751 7.66244 12.5471ZM10.8784 12.5471C10.8784 12.1524 10.8518 11.8217 10.7984 11.5551C10.7504 11.2831 10.6491 11.0617 10.4944 10.8911C10.3451 10.7204 10.1211 10.6351 9.82244 10.6351C9.52377 10.6351 9.2971 10.7204 9.14244 10.8911C8.9931 11.0617 8.89177 11.2831 8.83844 11.5551C8.79044 11.8217 8.76644 12.1524 8.76644 12.5471C8.76644 12.9524 8.79044 13.2937 8.83844 13.5711C8.88644 13.8431 8.98777 14.0644 9.14244 14.2351C9.2971 14.4004 9.52377 14.4831 9.82244 14.4831C10.1211 14.4831 10.3478 14.4004 10.5024 14.2351C10.6571 14.0644 10.7584 13.8431 10.8064 13.5711C10.8544 13.2937 10.8784 12.9524 10.8784 12.5471ZM15.9543 15.5391L13.9223 13.0511V15.5391H12.8023V9.95506H13.9223V12.4591L15.9543 9.95506H17.3063L15.0023 12.7231L17.3703 15.5391H15.9543ZM22.131 13.1791H20.619V14.7311H19.563V13.1791H18.051V12.2031H19.563V10.6511H20.619V12.2031H22.131V13.1791Z" fill="#486060"/>
</svg>
