<svg width="191" height="31" viewBox="0 0 191 31" fill="none" xmlns="http://www.w3.org/2000/svg">
<path d="M30.178 2.38512C30.5968 1.96672 30.5968 1.28836 30.178 0.869963C29.7591 0.451565 29.08 0.451565 28.6611 0.869963L30.178 2.38512ZM18.9799 5.52012C18.9799 4.92842 18.4997 4.44875 17.9074 4.44874C17.315 4.44875 16.8348 4.92842 16.8348 5.52012L18.9799 5.52012ZM25.7012 14.0983C26.2935 14.0983 26.7737 13.6186 26.7737 13.0269C26.7737 12.4352 26.2935 11.9555 25.7012 11.9555L25.7012 14.0983ZM17.9074 12.9545L18.9799 12.9545L17.9074 12.9545ZM28.6611 0.869963L17.271 12.2475L18.7878 13.7626L30.178 2.38512L28.6611 0.869963ZM18.9799 12.9545L18.9799 5.52012L16.8348 5.52012L16.8348 12.9545L18.9799 12.9545ZM17.9074 14.0983L25.7012 14.0983L25.7012 11.9555L17.9074 11.9556L17.9074 14.0983ZM17.271 12.2475C17.9016 11.6175 18.9799 12.0637 18.9799 12.9545L16.8348 12.9545C16.8348 13.9727 18.0671 14.4825 18.7878 13.7626L17.271 12.2475Z" fill="#C1C1C1"/>
<path d="M1.0432 28.7083C0.624339 29.1267 0.624339 29.8051 1.0432 30.2235C1.46206 30.6419 2.14117 30.6419 2.56004 30.2235L1.0432 28.7083ZM12.2412 25.5733C12.2412 26.165 12.7214 26.6447 13.3138 26.6447C13.9062 26.6447 14.3864 26.165 14.3864 25.5733L12.2412 25.5733ZM5.51998 16.9952C4.92762 16.9952 4.44742 17.4749 4.44743 18.0666C4.44743 18.6583 4.92764 19.1379 5.52 19.1379L5.51998 16.9952ZM13.3138 18.1389L12.2412 18.1389L13.3138 18.1389ZM2.56004 30.2235L13.9502 18.846L12.4333 17.3308L1.0432 28.7083L2.56004 30.2235ZM12.2412 18.1389L12.2412 25.5733L14.3864 25.5733L14.3864 18.1389L12.2412 18.1389ZM13.3138 16.9951L5.51998 16.9952L5.52 19.1379L13.3138 19.1378L13.3138 16.9951ZM13.9502 18.846C13.3195 19.4759 12.2412 19.0298 12.2412 18.1389L14.3864 18.1389C14.3864 17.1208 13.154 16.6109 12.4333 17.3308L13.9502 18.846Z" fill="#C1C1C1"/>
<path d="M56.4584 26.036H51.6076C51.2919 26.036 51.0336 25.9595 50.8327 25.8064C50.6413 25.6533 50.4882 25.4715 50.3734 25.261L46.1828 17.9418C46.1063 18.1523 46.0202 18.3341 45.9245 18.4872L42.0209 25.261C41.887 25.4524 41.7291 25.6294 41.5473 25.792C41.3656 25.9547 41.1312 26.036 40.8441 26.036H36.3091L43.0399 15.2725L36.5674 5.12609H41.4182C41.7339 5.12609 41.9635 5.16914 42.107 5.25525C42.2601 5.33179 42.3941 5.46573 42.5089 5.65709L46.6708 12.7036C46.7186 12.5792 46.7712 12.4596 46.8286 12.3448C46.8956 12.23 46.9674 12.1104 47.0439 11.986L50.6892 5.72884C50.8231 5.51836 50.9618 5.36528 51.1053 5.2696C51.2584 5.17392 51.445 5.12609 51.665 5.12609H56.3149L49.7563 15.0716L56.4584 26.036ZM70.6499 22.1611V26.036H58.0494V5.12609H62.9001V22.1611H70.6499ZM79.645 14.9568C80.3052 14.9568 80.8649 14.8754 81.3241 14.7128C81.7929 14.5406 82.1757 14.3062 82.4722 14.0096C82.7688 13.713 82.9841 13.3685 83.1181 12.9763C83.252 12.5744 83.319 12.1439 83.319 11.6847C83.319 10.7662 83.0176 10.0486 82.4148 9.53195C81.8217 9.0153 80.8984 8.75698 79.645 8.75698H77.6932V14.9568H79.645ZM89.9493 26.036H85.5578C84.7445 26.036 84.1609 25.7298 83.8069 25.1175L80.3339 19.0469C80.1712 18.7886 79.9895 18.602 79.7885 18.4872C79.5876 18.3628 79.3006 18.3006 78.9275 18.3006H77.6932V26.036H72.8425V5.12609H79.645C81.1567 5.12609 82.4435 5.28395 83.5055 5.59968C84.5771 5.90584 85.4478 6.33638 86.1175 6.8913C86.7968 7.44622 87.2895 8.1016 87.5957 8.85744C87.9018 9.61328 88.0549 10.4361 88.0549 11.3259C88.0549 12.0052 87.964 12.6462 87.7822 13.249C87.6005 13.8517 87.3326 14.4114 86.9786 14.9281C86.6246 15.4351 86.1845 15.8896 85.6582 16.2914C85.1416 16.6933 84.5436 17.0234 83.8643 17.2817C84.1801 17.4443 84.4767 17.65 84.7541 17.8988C85.0316 18.138 85.2803 18.425 85.5004 18.7599L89.9493 26.036ZM121.283 5.12609V26.036H117.007V14.0096C117.007 13.7321 117.011 13.4307 117.021 13.1054C117.04 12.7801 117.069 12.4501 117.107 12.1152L111.553 22.8644C111.381 23.1992 111.146 23.4528 110.85 23.625C110.563 23.7972 110.233 23.8833 109.86 23.8833H109.199C108.826 23.8833 108.491 23.7972 108.195 23.625C107.908 23.4528 107.678 23.1992 107.506 22.8644L101.952 12.0865C101.981 12.4309 102.005 12.7706 102.024 13.1054C102.043 13.4307 102.052 13.7321 102.052 14.0096V26.036H97.7757V5.12609H101.478C101.689 5.12609 101.871 5.13087 102.024 5.14044C102.186 5.15001 102.33 5.17871 102.454 5.22655C102.579 5.27438 102.689 5.35092 102.784 5.45617C102.89 5.55184 102.99 5.69057 103.086 5.87236L108.467 16.478C108.659 16.8416 108.841 17.2195 109.013 17.6118C109.195 18.004 109.367 18.4059 109.529 18.8173C109.692 18.3963 109.86 17.9849 110.032 17.5831C110.214 17.1812 110.405 16.7985 110.606 16.435L115.973 5.87236C116.069 5.69057 116.165 5.55184 116.26 5.45617C116.366 5.35092 116.48 5.27438 116.605 5.22655C116.729 5.17871 116.868 5.15001 117.021 5.14044C117.184 5.13087 117.37 5.12609 117.581 5.12609H121.283ZM129.922 8.85744V13.7369H136.495V17.3247H129.922V22.3047H138.504V26.036H125.042V5.12609H138.504V8.85744H129.922ZM160.181 15.5739C160.181 17.0855 159.918 18.4824 159.392 19.7645C158.875 21.037 158.143 22.142 157.196 23.0796C156.249 24.0077 155.106 24.7348 153.766 25.261C152.436 25.7777 150.958 26.036 149.332 26.036H141.209V5.12609H149.332C150.958 5.12609 152.436 5.38919 153.766 5.91541C155.106 6.44163 156.249 7.16876 157.196 8.09682C158.143 9.02487 158.875 10.1299 159.392 11.412C159.918 12.6845 160.181 14.0718 160.181 15.5739ZM155.216 15.5739C155.216 14.5406 155.082 13.6077 154.814 12.7754C154.546 11.943 154.158 11.2398 153.651 10.6657C153.154 10.0821 152.542 9.6372 151.814 9.33103C151.087 9.0153 150.26 8.85744 149.332 8.85744H146.088V22.3047H149.332C150.26 22.3047 151.087 22.1516 151.814 21.8454C152.542 21.5297 153.154 21.0848 153.651 20.5107C154.158 19.9271 154.546 19.2191 154.814 18.3867C155.082 17.5544 155.216 16.6167 155.216 15.5739ZM167.637 26.036H162.757V5.12609H167.637V26.036ZM182.434 18.0423L180.497 12.3161C180.353 11.9525 180.2 11.5268 180.037 11.0388C179.875 10.5413 179.712 10.0055 179.55 9.43149C179.406 10.0151 179.253 10.5557 179.09 11.0532C178.928 11.5507 178.775 11.9813 178.631 12.3448L176.708 18.0423H182.434ZM190.141 26.036H186.381C185.96 26.036 185.62 25.9403 185.362 25.749C185.103 25.5481 184.907 25.2945 184.773 24.9884L183.539 21.3431H175.589L174.354 24.9884C174.249 25.2563 174.058 25.5002 173.78 25.7203C173.512 25.9308 173.178 26.036 172.776 26.036H168.987L177.081 5.12609H182.047L190.141 26.036Z" fill="#D8D8D8"/>
</svg>
